<svg xmlns="http://www.w3.org/2000/svg" width="559.519" height="613.477" viewBox="0 0 559.519 613.477">
  <g id="jetpack-compose" transform="translate(-70.999 -59.913)">
    <g id="Group_3" data-name="Group 3" transform="translate(70.999 59.913)">
      <path id="Path_1" data-name="Path 1" d="M519.456,140.944,240.751,285.422l-.829,331.327L493.705,487.11a47.663,47.663,0,0,0,25.751-42.521Z" transform="translate(40.063 -4.001)" fill="#1967d2"/>
      <path id="Path_3" data-name="Path 3" d="M329.916,64.948a45.843,45.843,0,0,1,41.775,0l258.646,132.08L350.8,341.114,71.27,197.028,329.916,64.948Z" transform="translate(-70.821 -59.913)" fill="#34a853"/>
      <path id="Path_5" data-name="Path 5" d="M71,140.944,351.113,285.1V617.477L96.675,486.928A47.669,47.669,0,0,1,71,444.445v-303.5Z" transform="translate(-70.999 -4.001)"/>
    </g>
    <path id="Path_7" data-name="Path 7" d="M425.7,185.163a76.27,76.27,0,0,1,41.074,67.969v98.1a76.269,76.269,0,0,1-41.083,67.973l-87.737,45.017a73.338,73.338,0,0,1-67.093,0l-87.736-45.017a76.266,76.266,0,0,1-41.084-67.974v-98.1a76.269,76.269,0,0,1,41.073-67.969l87.736-45.033a73.342,73.342,0,0,1,67.114,0L425.7,185.163Z" transform="translate(46.708 49.742)" fill="#1d1d1b" opacity="0.2"/>
    <path id="Path_8" data-name="Path 8" d="M304.407,439.025V257.965L152.914,180.237a76.883,76.883,0,0,0-10.873,39.472v98.363a76.128,76.128,0,0,0,41.052,67.83l87.669,44.981a73.655,73.655,0,0,0,33.645,8.142Z" transform="translate(46.708 83.024)" fill="#202124"/>
    <g id="Group_6" data-name="Group 6" transform="translate(243.062 237.183)">
      <path id="Path_9" data-name="Path 9" d="M370.376,205.178a38.134,38.134,0,0,1,20.538,33.984v80.806a38.132,38.132,0,0,1-20.543,33.986l-70.736,36.295a36.67,36.67,0,0,1-33.547,0l-70.737-36.294a38.134,38.134,0,0,1-20.541-33.986V239.163a38.133,38.133,0,0,1,20.537-33.985l70.736-36.309a36.682,36.682,0,0,1,33.557,0l70.736,36.31Z" transform="translate(-174.81 -164.806)" fill="#d6f1fe"/>
    </g>
  </g>
</svg>
